<svg width="91" height="90" viewBox="0 0 91 90" fill="none" xmlns="http://www.w3.org/2000/svg">
<path d="M51.1364 46.6364C49.6174 46.6364 48.1607 47.2398 47.0866 48.3138C46.0125 49.3879 45.4091 50.8447 45.4091 52.3636M45.4091 52.3636V54M45.4091 52.3636C45.4091 50.8447 44.8057 49.3879 43.7317 48.3138C42.6576 47.2398 41.2008 46.6364 39.6819 46.6364M45.4091 54C45.4091 55.519 46.0125 56.9757 47.0866 58.0498C48.1607 59.1239 49.6174 59.7273 51.1364 59.7273C52.6554 59.7273 54.1121 59.1239 55.1862 58.0498C56.2603 56.9757 56.8637 55.519 56.8637 54V51.0545M45.4091 54C45.4091 55.519 44.8057 56.9757 43.7317 58.0498C42.6576 59.1239 41.2008 59.7273 39.6819 59.7273C38.1629 59.7273 36.7061 59.1239 35.6321 58.0498C34.558 56.9757 33.9546 55.519 33.9546 54V51.0545" stroke="#07E4EC" stroke-width="3.27273" stroke-linecap="round" stroke-linejoin="round"/>
<path d="M54.409 51.5455C55.928 51.5455 57.3847 50.9421 58.4588 49.868C59.5329 48.7939 60.1363 47.3372 60.1363 45.8182C60.1363 44.2992 59.5329 42.8425 58.4588 41.7684C57.3847 40.6944 55.928 40.0909 54.409 40.0909H53.5908" stroke="#07E4EC" stroke-width="3.27273" stroke-linecap="round" stroke-linejoin="round"/>
<path d="M56.8635 40.5819V36C56.8635 34.4811 56.2601 33.0243 55.186 31.9502C54.1119 30.8762 52.6552 30.2728 51.1362 30.2728C49.6172 30.2728 48.1605 30.8762 47.0864 31.9502C46.0123 33.0243 45.4089 34.4811 45.4089 36M36.4089 51.5455C34.8899 51.5455 33.4332 50.9421 32.3591 49.868C31.285 48.7939 30.6816 47.3372 30.6816 45.8182C30.6816 44.2993 31.285 42.8425 32.3591 41.7684C33.4332 40.6944 34.8899 40.0909 36.4089 40.0909H37.2271" stroke="#07E4EC" stroke-width="3.27273" stroke-linecap="round" stroke-linejoin="round"/>
<path d="M33.9546 40.5819V36C33.9546 34.4811 34.558 33.0243 35.6321 31.9502C36.7061 30.8762 38.1629 30.2728 39.6819 30.2728C41.2008 30.2728 42.6576 30.8762 43.7317 31.9502C44.8057 33.0243 45.4091 34.4811 45.4091 36V52.3637" stroke="#07E4EC" stroke-width="3.27273" stroke-linecap="round" stroke-linejoin="round"/>
<path d="M12.2725 33.9545C12.2725 36.4398 10.2577 38.4545 7.77246 38.4545C5.28718 38.4545 3.27246 36.4398 3.27246 33.9545C3.27246 31.4692 5.28718 29.4545 7.77246 29.4545C10.2577 29.4545 12.2725 31.4692 12.2725 33.9545ZM6.20304 33.9545C6.20304 34.8213 6.90569 35.5239 7.77246 35.5239C8.63923 35.5239 9.34188 34.8213 9.34188 33.9545C9.34188 33.0878 8.63923 32.3851 7.77246 32.3851C6.90569 32.3851 6.20304 33.0878 6.20304 33.9545Z" fill="#07E4EC"/>
<path d="M90.4089 21.2727C90.4089 23.758 88.3942 25.7727 85.9089 25.7727C83.4237 25.7727 81.4089 23.758 81.4089 21.2727C81.4089 18.7874 83.4237 16.7727 85.9089 16.7727C88.3942 16.7727 90.4089 18.7874 90.4089 21.2727ZM84.3395 21.2727C84.3395 22.1395 85.0422 22.8421 85.9089 22.8421C86.7757 22.8421 87.4784 22.1395 87.4784 21.2727C87.4784 20.4059 86.7757 19.7033 85.9089 19.7033C85.0422 19.7033 84.3395 20.4059 84.3395 21.2727Z" fill="#07E4EC"/>
<path d="M61.3635 6.95459C61.3635 9.43987 59.3488 11.4546 56.8635 11.4546C54.3782 11.4546 52.3635 9.43987 52.3635 6.95459C52.3635 4.46931 54.3782 2.45459 56.8635 2.45459C59.3488 2.45459 61.3635 4.46931 61.3635 6.95459ZM55.2941 6.95459C55.2941 7.82136 55.9968 8.52401 56.8635 8.52401C57.7303 8.52401 58.4329 7.82136 58.4329 6.95459C58.4329 6.08782 57.7303 5.38517 56.8635 5.38517C55.9968 5.38517 55.2941 6.08782 55.2941 6.95459Z" fill="#07E4EC"/>
<path d="M26.1816 4.5C26.1816 6.98528 24.1669 9 21.6816 9C19.1964 9 17.1816 6.98528 17.1816 4.5C17.1816 2.01472 19.1964 0 21.6816 0C24.1669 0 26.1816 2.01472 26.1816 4.5ZM20.1122 4.5C20.1122 5.36677 20.8149 6.06942 21.6816 6.06942C22.5484 6.06942 23.2511 5.36677 23.2511 4.5C23.2511 3.63323 22.5484 2.93058 21.6816 2.93058C20.8149 2.93058 20.1122 3.63323 20.1122 4.5Z" fill="#07E4EC"/>
<path d="M87.9543 56.4545C87.9543 58.9398 85.9396 60.9545 83.4543 60.9545C80.9691 60.9545 78.9543 58.9398 78.9543 56.4545C78.9543 53.9692 80.9691 51.9545 83.4543 51.9545C85.9396 51.9545 87.9543 53.9692 87.9543 56.4545ZM81.8849 56.4545C81.8849 57.3213 82.5876 58.0239 83.4543 58.0239C84.3211 58.0239 85.0238 57.3213 85.0238 56.4545C85.0238 55.5878 84.3211 54.8851 83.4543 54.8851C82.5876 54.8851 81.8849 55.5878 81.8849 56.4545Z" fill="#07E4EC"/>
<path d="M9 68.7273C9 71.2126 6.98528 73.2273 4.5 73.2273C2.01472 73.2273 0 71.2126 0 68.7273C0 66.242 2.01472 64.2273 4.5 64.2273C6.98528 64.2273 9 66.242 9 68.7273ZM2.93058 68.7273C2.93058 69.5941 3.63323 70.2967 4.5 70.2967C5.36677 70.2967 6.06942 69.5941 6.06942 68.7273C6.06942 67.8605 5.36677 67.1579 4.5 67.1579C3.63323 67.1579 2.93058 67.8605 2.93058 68.7273Z" fill="#07E4EC"/>
<path d="M74.0454 85.5C74.0454 87.9853 72.0307 90 69.5454 90C67.0601 90 65.0454 87.9853 65.0454 85.5C65.0454 83.0147 67.0601 81 69.5454 81C72.0307 81 74.0454 83.0147 74.0454 85.5ZM67.976 85.5C67.976 86.3668 68.6786 87.0694 69.5454 87.0694C70.4122 87.0694 71.1148 86.3668 71.1148 85.5C71.1148 84.6332 70.4122 83.9306 69.5454 83.9306C68.6786 83.9306 67.976 84.6332 67.976 85.5Z" fill="#07E4EC"/>
<path d="M38.8635 83.0455C38.8635 85.5308 36.8488 87.5455 34.3635 87.5455C31.8782 87.5455 29.8635 85.5308 29.8635 83.0455C29.8635 80.5602 31.8782 78.5455 34.3635 78.5455C36.8488 78.5455 38.8635 80.5602 38.8635 83.0455ZM32.7941 83.0455C32.7941 83.9122 33.4968 84.6149 34.3635 84.6149C35.2303 84.6149 35.9329 83.9122 35.9329 83.0455C35.9329 82.1787 35.2303 81.4761 34.3635 81.4761C33.4968 81.4761 32.7941 82.1787 32.7941 83.0455Z" fill="#07E4EC"/>
<rect x="11.0452" y="32.3182" width="14.3182" height="3.27273" fill="#07E4EC"/>
<rect x="22.9089" y="60.9545" width="33.9545" height="3.27273" rx="1.63636" transform="rotate(-90 22.9089 60.9545)" fill="#07E4EC"/>
<rect x="33.4236" y="18.3716" width="15.6633" height="3.13801" rx="1.56901" transform="rotate(-134.106 33.4236 18.3716)" fill="#07E4EC"/>
<path d="M32.3179 22.9091V16.7728C32.3179 16.7728 32.3179 16.7728 32.3179 16.7728C32.3179 15.869 33.0505 15.1364 33.9542 15.1364C33.9542 15.1364 33.9542 15.1364 33.9542 15.1364V15.1364C33.9542 15.1364 33.9542 15.1364 33.9542 15.1364C34.858 15.1364 35.5906 15.869 35.5906 16.7728C35.5906 16.7728 35.5906 16.7728 35.5906 16.7728V22.9091H32.3179Z" fill="#07E4EC"/>
<path d="M32.7271 79.7727V68.3182C32.7271 68.3182 32.7271 68.3182 32.7271 68.3182C32.7271 67.4144 33.4597 66.6818 34.3634 66.6818C34.3634 66.6818 34.3634 66.6818 34.3634 66.6818V66.6818C34.3634 66.6818 34.3634 66.6818 34.3634 66.6818C35.2672 66.6818 35.9998 67.4144 35.9998 68.3182C35.9998 68.3182 35.9998 68.3182 35.9998 68.3182V79.7727H32.7271Z" fill="#07E4EC"/>
<path d="M41.3179 64.2273V75.6818C41.3179 75.6818 41.3179 75.6818 41.3179 75.6818C41.3179 76.5856 40.5852 77.3182 39.6815 77.3182C39.6815 77.3182 39.6815 77.3182 39.6815 77.3182V77.3182C39.6815 77.3182 39.6815 77.3182 39.6815 77.3182C38.7778 77.3182 38.0451 76.5856 38.0451 75.6818C38.0451 75.6818 38.0451 75.6818 38.0451 75.6818V64.2273H41.3179Z" fill="#07E4EC"/>
<path d="M52.7727 64.2273V73.2273C52.7727 73.2273 52.7727 73.2273 52.7727 73.2273C52.7727 74.131 52.0401 74.8637 51.1363 74.8637C51.1363 74.8637 51.1363 74.8637 51.1363 74.8637V74.8637C51.1363 74.8637 51.1363 74.8637 51.1363 74.8637C50.2326 74.8637 49.5 74.131 49.5 73.2273C49.5 73.2273 49.5 73.2273 49.5 73.2273V64.2273H52.7727Z" fill="#07E4EC"/>
<path d="M58.0908 64.2273V73.2273C58.0908 73.2273 58.0908 73.2273 58.0908 73.2273C58.0908 74.131 57.3582 74.8637 56.4545 74.8637C56.4545 74.8637 56.4545 74.8637 56.4545 74.8637V74.8637C56.4545 74.8637 56.4545 74.8637 56.4545 74.8637C55.5507 74.8637 54.8181 74.131 54.8181 73.2273C54.8181 73.2273 54.8181 73.2273 54.8181 73.2273V64.2273H58.0908Z" fill="#07E4EC"/>
<path d="M58.2197 72.4091L67.8126 80.9373C67.8126 80.9373 67.8126 80.9373 67.8126 80.9373C68.4881 81.5378 68.5488 82.5721 67.9484 83.2475C67.9484 83.2475 67.9484 83.2475 67.9484 83.2475V83.2475C67.9484 83.2475 67.9484 83.2475 67.9484 83.2475C67.3479 83.9229 66.3136 83.9837 65.6382 83.3832C65.6382 83.3832 65.6382 83.3832 65.6382 83.3832L56.0453 74.855L58.2197 72.4091Z" fill="#07E4EC"/>
<path d="M47.0452 64.2273V88.3637C47.0452 88.3637 47.0452 88.3637 47.0452 88.3637C47.0452 89.2674 46.3125 90 45.4088 90C45.4088 90 45.4088 90 45.4088 90V90C45.4088 90 45.4088 90 45.4088 90C44.5051 90 43.7724 89.2674 43.7724 88.3637C43.7724 88.3637 43.7724 88.3637 43.7724 88.3637V64.2273H47.0452Z" fill="#07E4EC"/>
<rect x="26.9998" y="22.5" width="37.2273" height="3.27273" rx="1.63636" fill="#07E4EC"/>
<rect x="28.6362" y="64.2273" width="35.5909" height="3.27273" rx="1.63636" fill="#07E4EC"/>
<rect x="65.0454" y="64.2273" width="37.2273" height="3.27273" rx="1.63636" transform="rotate(-90 65.0454 64.2273)" fill="#07E4EC"/>
<path d="M38.1746 25.7702V17.0759C38.1746 16.2094 38.877 15.5069 39.7436 15.5069V15.5069C40.6101 15.5069 41.3126 16.2094 41.3126 17.0759V25.7702H38.1746Z" fill="#07E4EC"/>
<path d="M49.4998 25.8088V17.1145C49.4998 16.2479 50.2022 15.5455 51.0688 15.5455V15.5455C51.9353 15.5455 52.6378 16.248 52.6378 17.1145V25.8088H49.4998Z" fill="#07E4EC"/>
<rect x="66.6252" y="29.8409" width="8.1612" height="3.05825" rx="1.52912" transform="rotate(-133.688 66.6252 29.8409)" fill="#07E4EC"/>
<rect x="29.5332" y="67.5911" width="10.1826" height="3.09385" rx="1.54692" transform="rotate(-133.688 29.5332 67.5911)" fill="#07E4EC"/>
<path d="M55.2271 25.3636V11.4546C55.2271 11.4546 55.2271 11.4546 55.2271 11.4546C55.2271 10.5508 55.9597 9.81819 56.8634 9.81819C56.8634 9.81819 56.8634 9.81819 56.8634 9.81819V9.81819C56.8634 9.81819 56.8634 9.81819 56.8634 9.81819C57.7672 9.81819 58.4998 10.5508 58.4998 11.4546C58.4998 11.4546 58.4998 11.4546 58.4998 11.4546V25.3636H55.2271Z" fill="#07E4EC"/>
<path d="M43.7727 25.3636V1.63637C43.7727 1.63637 43.7727 1.63637 43.7727 1.63637C43.7727 0.732634 44.5053 9.60486e-06 45.4091 9.53674e-06C45.4091 9.53674e-06 45.4091 9.53674e-06 45.4091 9.53674e-06V9.53674e-06C45.4091 9.53674e-06 45.4091 9.53674e-06 45.4091 9.53674e-06C46.3128 9.60486e-06 47.0454 0.732634 47.0454 1.63637C47.0454 1.63637 47.0454 1.63637 47.0454 1.63637V25.3636H43.7727Z" fill="#07E4EC"/>
<path d="M71.5908 33.0395L81.7901 23.7441C81.7901 23.7441 81.7901 23.7441 81.7901 23.7441C82.458 23.1353 83.493 23.1833 84.1017 23.8513C84.1017 23.8513 84.1017 23.8513 84.1017 23.8513V23.8513C84.1017 23.8513 84.1017 23.8513 84.1017 23.8513C84.7105 24.5192 84.6625 25.5542 83.9946 26.1629C83.9946 26.1629 83.9946 26.1629 83.9946 26.1629L73.7953 35.4584L71.5908 33.0395Z" fill="#07E4EC"/>
<path d="M15.5454 39.2727C15.5454 38.369 16.278 37.6364 17.1818 37.6364H25.3636V40.9091H17.1818C16.278 40.9091 15.5454 40.1765 15.5454 39.2727V39.2727Z" fill="#07E4EC"/>
<path d="M74.8635 33.9545C74.8635 33.0508 74.1309 32.3182 73.2272 32.3182H65.0453V35.5909H73.2272C74.1309 35.5909 74.8635 34.8583 74.8635 33.9545V33.9545Z" fill="#07E4EC"/>
<path d="M74.8635 39.2727C74.8635 38.369 74.1309 37.6364 73.2272 37.6364H65.0453V40.9091H73.2272C74.1309 40.9091 74.8635 40.1765 74.8635 39.2727V39.2727Z" fill="#07E4EC"/>
<path d="M90.4089 45C90.4089 44.0963 89.6763 43.3636 88.7726 43.3636H65.0453V46.6364H88.7726C89.6763 46.6364 90.4089 45.9037 90.4089 45V45Z" fill="#07E4EC"/>
<path d="M74.8635 50.7273C74.8635 49.8236 74.1309 49.0909 73.2272 49.0909H65.0453V52.3637H73.2272C74.1309 52.3637 74.8635 51.631 74.8635 50.7273V50.7273Z" fill="#07E4EC"/>
<path d="M80.1816 56.4545C80.1816 55.5508 79.449 54.8182 78.5453 54.8182H65.0453V58.0909H78.5453C79.449 58.0909 80.1816 57.3583 80.1816 56.4545V56.4545Z" fill="#07E4EC"/>
<path d="M0 45C0 44.0963 0.732625 43.3636 1.63636 43.3636H25.3636V46.6364H1.63636C0.732625 46.6364 0 45.9037 0 45V45Z" fill="#07E4EC"/>
<path d="M15.5454 50.7273C15.5454 49.8236 16.278 49.0909 17.1818 49.0909H25.3636V52.3637H17.1818C16.278 52.3637 15.5454 51.631 15.5454 50.7273V50.7273Z" fill="#07E4EC"/>
<rect x="17.1816" y="54.8182" width="8.18182" height="3.27273" fill="#07E4EC"/>
<path d="M5.72705 65.7126L14.9316 56.25L17.1816 54.8182L17.1816 58.0909L8.18456 67.862L5.72705 65.7126Z" fill="#07E4EC"/>
</svg>
