<svg width="96" height="96" viewBox="0 0 96 96" fill="none" xmlns="http://www.w3.org/2000/svg">
<path d="M78 66C72.426 66 67.77 69.84 66.426 75H29.574C29.034 72.9387 27.9553 71.0582 26.4486 69.5514C24.9418 68.0447 23.0613 66.966 21 66.426V57C21 53.691 23.691 51 27 51H69C75.618 51 81 45.618 81 39V29.574C86.16 28.233 90 23.574 90 18C90 11.382 84.618 6 78 6C71.382 6 66 11.382 66 18C66 23.574 69.84 28.23 75 29.574V39C75 42.309 72.309 45 69 45H27C20.382 45 15 50.382 15 57V66.426C9.84 67.767 6 72.426 6 78C6 84.618 11.382 90 18 90C23.574 90 28.23 86.16 29.574 81H66.426C67.767 86.16 72.426 90 78 90C84.618 90 90 84.618 90 78C90 71.382 84.618 66 78 66ZM72 18C72 14.691 74.691 12 78 12C81.309 12 84 14.691 84 18C84 21.309 81.309 24 78 24C74.691 24 72 21.309 72 18ZM18 84C14.691 84 12 81.309 12 78C12 74.691 14.691 72 18 72C21.309 72 24 74.691 24 78C24 81.309 21.309 84 18 84ZM78 84C74.691 84 72 81.309 72 78C72 74.691 74.691 72 78 72C81.309 72 84 74.691 84 78C84 81.309 81.309 84 78 84Z" fill="#07E4EC"/>
<path d="M18 30C20.22 30 22.272 29.355 24.057 28.299L34.758 39L39 34.758L28.299 24.057C29.4014 22.2281 29.9891 20.1354 30 18C30 11.382 24.618 6 18 6C11.382 6 6 11.382 6 18C6 24.618 11.382 30 18 30ZM18 12C21.309 12 24 14.691 24 18C24 21.309 21.309 24 18 24C14.691 24 12 21.309 12 18C12 14.691 14.691 12 18 12Z" fill="#07E4EC"/>
</svg>
