<svg width="96" height="96" viewBox="0 0 96 96" fill="none" xmlns="http://www.w3.org/2000/svg">
<g clip-path="url(#clip0_25_352)">
<path d="M88 10.6666H8.00004C7.2928 10.6666 6.61452 10.9476 6.11442 11.4477C5.61433 11.9478 5.33337 12.626 5.33337 13.3333V17.7866C5.33387 18.4165 5.45901 19.04 5.70158 19.6212C5.94415 20.2025 6.29935 20.7299 6.74671 21.1733L37.3334 52.2133V79.4133L42.6667 81.44V50.6666C42.6687 50.3157 42.6015 49.9678 42.4688 49.6429C42.3361 49.318 42.1405 49.0225 41.8934 48.7733L10.6667 17.5733V16H85.3334V17.6266L54.2134 48.7733C53.9469 49.0135 53.7316 49.3049 53.5804 49.6303C53.4292 49.9556 53.3452 50.3081 53.3334 50.6666V85.8933L58.6667 88V52L89.2534 21.3333C89.7079 20.8787 90.0671 20.3379 90.3098 19.7426C90.5525 19.1473 90.6739 18.5095 90.6667 17.8666V13.3333C90.6667 12.626 90.3857 11.9478 89.8857 11.4477C89.3856 10.9476 88.7073 10.6666 88 10.6666Z" fill="#07E4EC"/>
</g>
<defs>
<clipPath id="clip0_25_352">
<rect width="96" height="96" fill="white"/>
</clipPath>
</defs>
</svg>
