<svg width="96" height="96" viewBox="0 0 96 96" fill="none" xmlns="http://www.w3.org/2000/svg">
<path d="M80.04 92.04C86.6675 92.04 92.04 86.6675 92.04 80.04C92.04 73.4126 86.6675 68.04 80.04 68.04C73.4126 68.04 68.04 73.4126 68.04 80.04C68.04 86.6675 73.4126 92.04 80.04 92.04Z" fill="#07E4EC"/>
<path d="M72 12H27.32C26.3764 9.33117 24.5197 7.08181 22.0781 5.6495C19.6364 4.21719 16.767 3.69416 13.9771 4.17284C11.1871 4.65153 8.65615 6.10111 6.83158 8.26538C5.00701 10.4297 4.00629 13.1693 4.00629 16C4.00629 18.8308 5.00701 21.5704 6.83158 23.7347C8.65615 25.8989 11.1871 27.3485 13.9771 27.8272C16.767 28.3059 19.6364 27.7829 22.0781 26.3506C24.5197 24.9182 26.3764 22.6689 27.32 20H72C75.1826 20 78.2348 21.2643 80.4853 23.5147C82.7357 25.7652 84 28.8174 84 32C84 35.1826 82.7357 38.2349 80.4853 40.4853C78.2348 42.7357 75.1826 44 72 44H59.32C58.4792 41.6834 56.9455 39.6819 54.9273 38.2674C52.9092 36.8529 50.5045 36.0941 48.04 36.0941C45.5755 36.0941 43.1708 36.8529 41.1527 38.2674C39.1345 39.6819 37.6008 41.6834 36.76 44H24C18.6957 44 13.6086 46.1072 9.85786 49.8579C6.10714 53.6086 4 58.6957 4 64C4 69.3044 6.10714 74.3914 9.85786 78.1422C13.6086 81.8929 18.6957 84 24 84H48V96L64 80L48 64V76H24C20.8174 76 17.7652 74.7357 15.5147 72.4853C13.2643 70.2349 12 67.1826 12 64C12 60.8174 13.2643 57.7652 15.5147 55.5147C17.7652 53.2643 20.8174 52 24 52H36.8C37.6486 54.3032 39.1831 56.2908 41.1965 57.6947C43.2099 59.0985 45.6055 59.8512 48.06 59.8512C50.5145 59.8512 52.9101 59.0985 54.9235 57.6947C56.9369 56.2908 58.4714 54.3032 59.32 52H72C77.3043 52 82.3914 49.8929 86.1421 46.1422C89.8929 42.3914 92 37.3044 92 32C92 26.6957 89.8929 21.6086 86.1421 17.8579C82.3914 14.1072 77.3043 12 72 12Z" fill="#07E4EC"/>
</svg>
