<svg width="96" height="96" viewBox="0 0 96 96" fill="none" xmlns="http://www.w3.org/2000/svg">
<path d="M83.92 36.772V27.288C85.8407 26.6307 87.5627 25.4956 88.9239 23.9895C90.2851 22.4834 91.2408 20.6558 91.7012 18.6786C92.1615 16.7015 92.1114 14.6397 91.5554 12.6872C90.9995 10.7347 89.956 8.95576 88.5232 7.51764C87.0903 6.07952 85.3152 5.02951 83.3648 4.46638C81.4144 3.90324 79.3528 3.8455 77.3739 4.29857C75.3951 4.75164 73.564 5.70064 72.0529 7.0563C70.5418 8.41196 69.4004 10.1297 68.736 12.048H59.264C58.5958 10.1348 57.4528 8.42261 55.942 7.07192C54.4313 5.72122 52.6023 4.77627 50.6265 4.32564C48.6507 3.87502 46.5929 3.93347 44.6459 4.49553C42.6989 5.0576 40.9265 6.10485 39.4948 7.53913C38.0632 8.97341 37.0192 10.7477 36.4607 12.6958C35.9022 14.6438 35.8475 16.7018 36.3018 18.6767C36.756 20.6517 37.7044 22.4789 39.0578 23.9872C40.4113 25.4955 42.1256 26.6353 44.04 27.3V36.78C41.6944 37.5825 39.6583 39.0981 38.2167 41.115C36.775 43.1318 36 45.5489 36 48.028C36 50.5071 36.775 52.9242 38.2167 54.941C39.6583 56.9579 41.6944 58.4735 44.04 59.276V68.756C42.3537 69.3465 40.8214 70.3079 39.5559 71.5692C38.2904 72.8305 37.3241 74.3597 36.728 76.044H27.272C26.6781 74.3668 25.7169 72.8434 24.4588 71.5853C23.2006 70.3271 21.6772 69.3659 20 68.772V59.292C22.6822 58.3574 24.9474 56.5044 26.3951 54.0607C27.8427 51.617 28.3795 48.74 27.9105 45.9387C27.4415 43.1373 25.9969 40.5921 23.8322 38.7532C21.6675 36.9143 18.9222 35.9002 16.0819 35.8903C13.2415 35.8803 10.4892 36.8752 8.31171 38.6989C6.13419 40.5226 4.6718 43.0576 4.18317 45.8556C3.69455 48.6536 4.21118 51.5343 5.6417 53.9881C7.07221 56.4419 9.32443 58.3107 12 59.264V68.772C10.0943 69.4447 8.39004 70.5893 7.0465 72.0991C5.70296 73.6088 4.7639 75.4344 4.317 77.4053C3.87011 79.3763 3.92996 81.4284 4.49095 83.3699C5.05195 85.3115 6.09581 87.0793 7.52505 88.5081C8.95429 89.937 10.7223 90.9804 12.664 91.5409C14.6057 92.1014 16.6578 92.1607 18.6287 91.7133C20.5995 91.2658 22.4248 90.3263 23.9342 88.9824C25.4436 87.6384 26.5878 85.9339 27.26 84.028H36.74C37.4095 85.936 38.5516 87.6433 40.0596 88.9905C41.5676 90.3376 43.3923 91.2807 45.3635 91.7317C47.3346 92.1828 49.3879 92.127 51.3317 91.5696C53.2754 91.0123 55.0463 89.9715 56.4789 88.5445C57.9116 87.1175 58.9593 85.3507 59.5242 83.4092C60.0892 81.4676 60.1531 79.4146 59.7098 77.4417C59.2665 75.4688 58.3306 73.6403 56.9894 72.1271C55.6482 70.6138 53.9454 69.465 52.04 68.788V59.276C54.3657 58.4539 56.3793 56.9309 57.8035 54.9168C59.2277 52.9028 59.9925 50.4967 59.9925 48.03C59.9925 45.5633 59.2277 43.1572 57.8035 41.1432C56.3793 39.1291 54.3657 37.6061 52.04 36.784V27.276C53.7049 26.6791 55.2166 25.7201 56.4658 24.468C57.7151 23.216 58.6708 21.7022 59.264 20.036H68.736C69.3154 21.7048 70.2616 23.2225 71.5048 24.4775C72.748 25.7325 74.2567 26.6929 75.92 27.288V36.796C73.6026 37.6141 71.5962 39.1312 70.1776 41.138C68.759 43.1448 67.9981 45.5424 68 48C67.9791 50.2083 68.568 52.3795 69.7018 54.2746C70.8357 56.1697 72.4705 57.7151 74.4262 58.7408C76.382 59.7664 78.5828 60.2325 80.7865 60.0877C82.9901 59.9428 85.111 59.1927 86.9157 57.9199C88.7204 56.6471 90.1388 54.901 91.0149 52.8738C91.8909 50.8466 92.1906 48.617 91.8809 46.4304C91.5711 44.2439 90.664 42.1852 89.2594 40.4811C87.8548 38.777 86.0072 37.4935 83.92 36.772ZM16 84C15.2089 84 14.4355 83.7654 13.7777 83.3259C13.1199 82.8864 12.6072 82.2616 12.3045 81.5307C12.0017 80.7998 11.9225 79.9956 12.0769 79.2196C12.2312 78.4437 12.6122 77.731 13.1716 77.1716C13.731 76.6122 14.4437 76.2312 15.2196 76.0769C15.9956 75.9225 16.7998 76.0017 17.5307 76.3045C18.2616 76.6072 18.8864 77.1199 19.3259 77.7777C19.7654 78.4355 20 79.2089 20 80C20 81.0609 19.5786 82.0783 18.8284 82.8284C18.0783 83.5786 17.0609 84 16 84ZM16 52C15.2089 52 14.4355 51.7654 13.7777 51.3259C13.1199 50.8864 12.6072 50.2616 12.3045 49.5307C12.0017 48.7998 11.9225 47.9956 12.0769 47.2196C12.2312 46.4437 12.6122 45.731 13.1716 45.1716C13.731 44.6122 14.4437 44.2312 15.2196 44.0769C15.9956 43.9225 16.7998 44.0017 17.5307 44.3045C18.2616 44.6072 18.8864 45.1199 19.3259 45.7777C19.7654 46.4355 20 47.2089 20 48C20 49.0609 19.5786 50.0783 18.8284 50.8284C18.0783 51.5786 17.0609 52 16 52ZM48 84C47.2089 84 46.4355 83.7654 45.7777 83.3259C45.1199 82.8864 44.6072 82.2616 44.3045 81.5307C44.0017 80.7998 43.9225 79.9956 44.0769 79.2196C44.2312 78.4437 44.6122 77.731 45.1716 77.1716C45.731 76.6122 46.4437 76.2312 47.2196 76.0769C47.9956 75.9225 48.7998 76.0017 49.5307 76.3045C50.2616 76.6072 50.8864 77.1199 51.3259 77.7777C51.7654 78.4355 52 79.2089 52 80C52 81.0609 51.5786 82.0783 50.8284 82.8284C50.0783 83.5786 49.0609 84 48 84ZM48 52C46.9242 51.9866 45.896 51.5541 45.134 50.7944C44.3721 50.0347 43.9366 49.0078 43.92 47.932C43.941 46.87 44.3823 45.8597 45.1472 45.1226C45.912 44.3855 46.938 43.9818 48 44C48.5174 43.9941 49.0308 44.0918 49.5099 44.2875C49.989 44.4831 50.424 44.7727 50.7893 45.1392C51.1547 45.5057 51.443 45.9416 51.6371 46.4212C51.8313 46.9009 51.9275 47.4146 51.92 47.932C51.9393 48.9912 51.5372 50.0147 50.8021 50.7775C50.0671 51.5403 49.0592 51.98 48 52ZM47.92 19.976C46.8826 19.9432 45.8987 19.508 45.1765 18.7625C44.4543 18.0171 44.0504 17.0199 44.0504 15.982C44.0504 14.9441 44.4543 13.9469 45.1765 13.2015C45.8987 12.456 46.8826 12.0208 47.92 11.988C48.4551 11.9711 48.9882 12.0618 49.4876 12.2549C49.987 12.448 50.4424 12.7395 50.827 13.1121C51.2115 13.4846 51.5172 13.9306 51.726 14.4236C51.9348 14.9167 52.0424 15.4466 52.0424 15.982C52.0424 16.5174 51.9348 17.0473 51.726 17.5404C51.5172 18.0334 51.2115 18.4794 50.827 18.8519C50.4424 19.2245 49.987 19.516 49.4876 19.7091C48.9882 19.9022 48.4551 19.9929 47.92 19.976ZM80 51.92C79.4791 51.9285 78.9617 51.8335 78.4778 51.6405C77.9939 51.4474 77.5531 51.1603 77.1811 50.7957C76.809 50.431 76.513 49.9961 76.3102 49.5162C76.1075 49.0363 76.0021 48.521 76 48C76.0189 46.9312 76.4573 45.9127 77.2207 45.1643C77.984 44.4159 79.011 43.9977 80.08 44C81.1308 44.0106 82.1343 44.4382 82.8698 45.1887C83.6054 45.9392 84.0126 46.9512 84.002 48.002C83.9914 49.0528 83.5638 50.0563 82.8133 50.7918C82.0628 51.5274 81.0508 51.9346 80 51.924V51.92ZM80 20C79.2089 20 78.4355 19.7654 77.7777 19.3259C77.1199 18.8864 76.6072 18.2616 76.3045 17.5307C76.0017 16.7998 75.9225 15.9956 76.0769 15.2196C76.2312 14.4437 76.6122 13.731 77.1716 13.1716C77.731 12.6122 78.4437 12.2312 79.2196 12.0769C79.9956 11.9225 80.7998 12.0017 81.5307 12.3045C82.2616 12.6072 82.8864 13.1199 83.3259 13.7777C83.7654 14.4355 84 15.2089 84 16C84 17.0609 83.5786 18.0783 82.8284 18.8284C82.0783 19.5786 81.0609 20 80 20Z" fill="#07E4EC"/>
<path d="M80 68C77.6266 68 75.3066 68.7038 73.3332 70.0224C71.3598 71.3409 69.8217 73.2151 68.9134 75.4078C68.0052 77.6005 67.7676 80.0133 68.2306 82.3411C68.6936 84.6689 69.8365 86.8071 71.5147 88.4853C73.1929 90.1635 75.3311 91.3064 77.6589 91.7694C79.9867 92.2324 82.3995 91.9948 84.5922 91.0866C86.7849 90.1783 88.6591 88.6402 89.9776 86.6668C91.2962 84.6935 92 82.3734 92 80C92 76.8174 90.7357 73.7652 88.4853 71.5147C86.2348 69.2643 83.1826 68 80 68ZM80 84C79.2089 84 78.4355 83.7654 77.7777 83.3259C77.1199 82.8864 76.6072 82.2616 76.3045 81.5307C76.0017 80.7998 75.9225 79.9956 76.0769 79.2196C76.2312 78.4437 76.6122 77.731 77.1716 77.1716C77.731 76.6122 78.4437 76.2312 79.2196 76.0769C79.9956 75.9225 80.7998 76.0017 81.5307 76.3045C82.2616 76.6072 82.8864 77.1199 83.3259 77.7777C83.7654 78.4355 84 79.2089 84 80C84 81.0609 83.5786 82.0783 82.8284 82.8284C82.0783 83.5786 81.0609 84 80 84ZM16 4C13.6266 4 11.3065 4.70379 9.33316 6.02236C7.35977 7.34094 5.8217 9.21509 4.91345 11.4078C4.00519 13.6005 3.76755 16.0133 4.23058 18.3411C4.6936 20.6689 5.83649 22.8071 7.51472 24.4853C9.19295 26.1635 11.3311 27.3064 13.6589 27.7694C15.9867 28.2324 18.3995 27.9948 20.5922 27.0866C22.7849 26.1783 24.6591 24.6402 25.9776 22.6668C27.2962 20.6935 28 18.3734 28 16C28 12.8174 26.7357 9.76515 24.4853 7.51472C22.2348 5.26428 19.1826 4 16 4ZM16 20C15.2089 20 14.4355 19.7654 13.7777 19.3259C13.1199 18.8864 12.6072 18.2616 12.3045 17.5307C12.0017 16.7998 11.9225 15.9956 12.0769 15.2196C12.2312 14.4437 12.6122 13.731 13.1716 13.1716C13.731 12.6122 14.4437 12.2312 15.2196 12.0769C15.9956 11.9225 16.7998 12.0017 17.5307 12.3045C18.2616 12.6072 18.8864 13.1199 19.3259 13.7777C19.7654 14.4355 20 15.2089 20 16C20 17.0609 19.5786 18.0783 18.8284 18.8284C18.0783 19.5786 17.0609 20 16 20Z" fill="#07E4EC"/>
</svg>
