<svg width="96" height="96" viewBox="0 0 96 96" fill="none" xmlns="http://www.w3.org/2000/svg">
<path d="M86.256 48.108C87.0278 48.1368 87.7975 48.0096 88.5191 47.7342C89.2406 47.4587 89.8992 47.0405 90.4555 46.5047C91.0117 45.9688 91.4541 45.3263 91.7564 44.6155C92.0586 43.9047 92.2143 43.1403 92.2143 42.368C92.2143 41.5956 92.0586 40.8312 91.7564 40.1204C91.4541 39.4096 91.0117 38.7671 90.4555 38.2312C89.8992 37.6954 89.2406 37.2772 88.5191 37.0017C87.7975 36.7263 87.0278 36.5991 86.256 36.6279C86.132 36.6279 86.016 36.652 85.888 36.66L83.96 29.0599C84.5975 28.5815 85.1279 27.975 85.5173 27.2796C85.9066 26.5841 86.1464 25.8149 86.2211 25.0214C86.2958 24.2278 86.2038 23.4274 85.9511 22.6715C85.6983 21.9156 85.2904 21.2208 84.7534 20.6318C84.2165 20.0428 83.5623 19.5724 82.8329 19.251C82.1036 18.9296 81.3151 18.7641 80.518 18.7653C79.721 18.7664 78.933 18.9341 78.2045 19.2577C77.4761 19.5812 76.8233 20.0534 76.288 20.644L56.728 11.552C56.9324 10.9707 57.0405 10.36 57.048 9.74395C57.0682 8.97715 56.9347 8.21406 56.6552 7.49971C56.3758 6.78536 55.9561 6.13422 55.4209 5.58471C54.8857 5.0352 54.2458 4.59846 53.5391 4.30024C52.8324 4.00203 52.0731 3.84839 51.306 3.84839C50.5389 3.84839 49.7796 4.00203 49.0729 4.30024C48.3662 4.59846 47.7263 5.0352 47.1911 5.58471C46.656 6.13422 46.2362 6.78536 45.9568 7.49971C45.6773 8.21406 45.5438 8.97715 45.564 9.74395C45.5738 9.93953 45.5938 10.1345 45.624 10.328L33.168 14.148C32.3078 13.0792 31.0922 12.3552 29.7427 12.1079C28.3933 11.8607 26.9999 12.1067 25.8167 12.8011C24.6335 13.4955 23.7393 14.5921 23.2972 15.8908C22.855 17.1895 22.8943 18.6038 23.408 19.876L11.688 30.34C10.804 29.7986 9.78862 29.5095 8.752 29.504C7.37985 29.4973 6.05099 29.9839 5.0075 30.8749C3.964 31.7659 3.27531 33.0022 3.06688 34.3584C2.85845 35.7147 3.14416 37.1006 3.87195 38.2639C4.59974 39.4271 5.72119 40.2902 7.032 40.6959L6.256 48.16C5.38128 48.2812 4.54645 48.6031 3.81674 49.1005C3.08702 49.5978 2.48218 50.2571 2.04947 51.027C1.61676 51.7968 1.3679 52.6562 1.32233 53.5381C1.27676 54.42 1.43572 55.3005 1.78679 56.1108C2.13786 56.9211 2.67152 57.6393 3.34609 58.2092C4.02067 58.7791 4.81788 59.1853 5.67543 59.3961C6.53299 59.6069 7.42768 59.6165 8.28958 59.4243C9.15149 59.2321 9.95728 58.8432 10.644 58.2879L14.508 59.9879L14.496 60.1079C14.5017 61.5383 15.0417 62.915 16.01 63.9678C16.9782 65.0207 18.3049 65.6738 19.7298 65.799C21.1548 65.9242 22.575 65.5125 23.7121 64.6446C24.8491 63.7768 25.6209 62.5154 25.876 61.1079H30.292C30.6386 62.356 31.3985 63.4494 32.4474 64.2094C33.4963 64.9694 34.7721 65.3508 36.066 65.2913C37.36 65.2319 38.5954 64.735 39.5702 63.882C40.5449 63.0291 41.2014 61.8705 41.432 60.5959L53.86 61.0039C54.7698 61.7888 55.9074 62.261 57.1056 62.351C58.3038 62.4411 59.4992 62.1441 60.516 61.5039C67.5319 65.3319 73.4495 70.8942 77.704 77.66C77.4236 78.3415 77.2783 79.071 77.276 79.8079C77.2706 80.7896 77.5168 81.7562 77.9911 82.6156C78.4655 83.475 79.1522 84.1985 79.9857 84.717C80.8192 85.2355 81.7717 85.5318 82.7523 85.5776C83.7328 85.6233 84.7088 85.417 85.5869 84.9783C86.4651 84.5396 87.2161 83.8832 87.7685 83.0717C88.3208 82.2601 88.6559 81.3206 88.7419 80.3428C88.8278 79.3649 88.6617 78.3813 88.2595 77.4859C87.8572 76.5905 87.2322 75.8131 86.444 75.2279C84.4345 72.3041 83.0234 69.0115 82.292 65.5399C83.2768 65.2272 84.1578 64.6522 84.8404 63.8765C85.523 63.1009 85.9815 62.154 86.1665 61.1374C86.3516 60.1209 86.2562 59.0732 85.8907 58.1067C85.5252 57.1403 84.9034 56.2916 84.092 55.6519L86.256 48.108ZM88.516 42.368C88.5152 42.8138 88.3823 43.2494 88.1341 43.6198C87.8859 43.9902 87.5336 44.2787 87.1215 44.449C86.7094 44.6192 86.2562 44.6636 85.8189 44.5764C85.3817 44.4892 84.98 44.2744 84.6648 43.9592C84.3495 43.6439 84.1347 43.2423 84.0476 42.8051C83.9604 42.3678 84.0047 41.9145 84.175 41.5025C84.3452 41.0904 84.6338 40.738 85.0042 40.4898C85.3745 40.2416 85.8102 40.1087 86.256 40.108C86.8554 40.108 87.4302 40.3461 87.8541 40.7699C88.2779 41.1937 88.516 41.7686 88.516 42.368ZM83.94 37.1199C83.0029 37.5387 82.1953 38.2013 81.6014 39.0385C81.0076 39.8758 80.6494 40.8571 80.564 41.88H76.08C76.0143 41.0984 75.7882 40.3388 75.4159 39.6486C75.0436 38.9583 74.533 38.3521 73.916 37.868L79.544 30.136C80.4058 30.3098 81.2982 30.2546 82.132 29.976L83.94 37.1199ZM74.844 59.3879L63.252 56.4199C63.205 55.1264 62.7182 53.8875 61.872 52.9079L66.552 46.608C67.2703 47.2843 68.1572 47.7551 69.1199 47.9711C70.0825 48.1872 71.0856 48.1405 72.024 47.8359L77.032 55.5719C76.4332 56.0318 75.9315 56.6059 75.5559 57.2609C75.1804 57.9159 74.9384 58.6388 74.844 59.3879ZM33.004 21.54L49.328 30.084C48.9793 31.0981 48.9556 32.1957 49.26 33.2239L38.78 38.6119C38.2465 37.991 37.5857 37.4922 36.8423 37.1491C36.099 36.8061 35.2906 36.627 34.472 36.624C34.424 36.624 34.38 36.6359 34.332 36.6399L30.56 23.16C31.5016 22.8415 32.3439 22.2831 33.004 21.54ZM77.6 29.416L72.132 36.9199C71.2097 36.6013 70.2192 36.5342 69.2624 36.7254C68.3056 36.9166 67.417 37.3593 66.688 38.0079L60.324 33.208C60.5428 32.5233 60.5909 31.7955 60.464 31.0879L75.292 26.848C75.782 27.9169 76.5874 28.8102 77.6 29.408V29.416ZM70.384 44.624C69.938 44.6232 69.5022 44.4902 69.1317 44.2418C68.7613 43.9934 68.4727 43.6408 68.3026 43.2285C68.1325 42.8162 68.0883 42.3627 68.1758 41.9254C68.2633 41.488 68.4785 41.0864 68.7942 40.7713C69.1099 40.4562 69.5118 40.2417 69.9494 40.155C70.3869 40.0683 70.8403 40.1132 71.2523 40.2841C71.6643 40.4549 72.0164 40.7441 72.2641 41.115C72.5118 41.4859 72.644 41.9219 72.644 42.368C72.6429 42.9666 72.4044 43.5405 71.9807 43.9634C71.5569 44.3864 70.9827 44.624 70.384 44.624ZM54.788 34.0239C54.3422 34.0232 53.9065 33.8903 53.5361 33.6421C53.1658 33.3939 52.8772 33.0415 52.707 32.6294C52.5367 32.2174 52.4924 31.7641 52.5796 31.3268C52.6667 30.8896 52.8815 30.488 53.1968 30.1727C53.512 29.8575 53.9137 29.6427 54.3509 29.5555C54.7882 29.4683 55.2414 29.5127 55.6535 29.6829C56.0656 29.8532 56.4179 30.1417 56.6661 30.5121C56.9143 30.8825 57.0472 31.3181 57.048 31.764C57.0469 32.3626 56.8084 32.9365 56.3847 33.3594C55.9609 33.7824 55.3867 34.024 54.788 34.0239ZM34.468 40.108C34.914 40.108 35.35 40.2402 35.721 40.4879C36.0919 40.7356 36.381 41.0877 36.5519 41.4997C36.7228 41.9117 36.7677 42.3651 36.6809 42.8026C36.5942 43.2401 36.3798 43.6421 36.0646 43.9578C35.7495 44.2734 35.3479 44.4886 34.9106 44.5761C34.4732 44.6636 34.0197 44.6195 33.6074 44.4494C33.1951 44.2792 32.8425 43.9907 32.5941 43.6202C32.3458 43.2498 32.2128 42.814 32.212 42.368C32.212 41.7686 32.4501 41.1937 32.8739 40.7699C33.2978 40.3461 33.8726 40.108 34.472 40.108H34.468ZM40.212 42.368C40.2083 41.6683 40.0754 40.9753 39.82 40.324L50.092 35.0439C50.6195 35.8021 51.3223 36.4216 52.1405 36.8499C52.9588 37.2782 53.8684 37.5026 54.792 37.504L54.888 37.4959L53.152 52.1359L37.528 54.1119C37.2149 54.0123 36.8937 53.94 36.568 53.8959L35.38 48.0159C36.7244 47.8006 37.9485 47.1143 38.8337 46.0797C39.7188 45.0451 40.2073 43.7295 40.212 42.368ZM35.8 57.2999C36.2459 57.3007 36.6815 57.4336 37.0519 57.6818C37.4222 57.93 37.7108 58.2824 37.881 58.6945C38.0513 59.1065 38.0956 59.5598 38.0085 59.997C37.9213 60.4343 37.7065 60.8359 37.3912 61.1512C37.076 61.4664 36.6744 61.6812 36.2371 61.7684C35.7999 61.8556 35.3466 61.8112 34.9345 61.641C34.5224 61.4707 34.1701 61.1822 33.9219 60.8118C33.6737 60.4414 33.5408 60.0058 33.54 59.5599C33.54 58.9606 33.7781 58.3857 34.2019 57.9619C34.6258 57.5381 35.2006 57.2999 35.8 57.2999ZM40.104 55.7999L52.316 54.2599C51.974 54.9942 51.7952 55.7938 51.7917 56.6038C51.7883 57.4137 51.9603 58.2148 52.296 58.9519L41.444 58.5999C41.2654 57.5605 40.8015 56.5911 40.104 55.7999ZM56.956 37.0719C57.9673 36.6573 58.8399 35.9637 59.472 35.0719L65.416 39.5519C64.9343 40.3668 64.6703 41.2919 64.6493 42.2383C64.6283 43.1846 64.851 44.1205 65.296 44.956L60.324 51.636C59.562 51.1948 58.7067 50.9395 57.8275 50.8908C56.9483 50.8422 56.07 51.0015 55.264 51.3559L56.956 37.0719ZM80.516 22.24C80.9622 22.24 81.3984 22.3723 81.7694 22.6202C82.1404 22.868 82.4295 23.2204 82.6003 23.6326C82.771 24.0448 82.8157 24.4985 82.7287 24.9361C82.6416 25.3737 82.4268 25.7757 82.1112 26.0912C81.7957 26.4067 81.3938 26.6216 80.9561 26.7086C80.5185 26.7957 80.0649 26.751 79.6527 26.5802C79.2404 26.4095 78.8881 26.1203 78.6402 25.7493C78.3923 25.3783 78.26 24.9421 78.26 24.496C78.2611 23.8973 78.4996 23.3234 78.9234 22.9005C79.3471 22.4775 79.9173 22.24 80.516 22.24ZM75.204 22.344C74.9231 23.0267 74.7778 23.7577 74.776 24.496C74.776 24.636 74.808 24.768 74.816 24.908L59.888 29.172C59.412 28.2276 58.6841 27.4333 57.7847 26.877C56.8853 26.3208 55.8495 26.0241 54.792 26.02C54.62 26.02 54.452 26.06 54.284 26.072L52.2 15.392C53.6086 15.1688 54.8828 14.4269 55.772 13.312L75.204 22.344ZM51.304 7.47995C51.75 7.47995 52.186 7.61217 52.557 7.85988C52.9279 8.1076 53.217 8.4597 53.3879 8.8717C53.5588 9.2837 53.6037 9.7371 53.5169 10.1746C53.4302 10.6121 53.2158 11.0141 52.9007 11.3298C52.5855 11.6454 52.1839 11.8606 51.7466 11.9481C51.3092 12.0356 50.8557 11.9915 50.4434 11.8214C50.0311 11.6512 49.6785 11.3627 49.4302 10.9922C49.1818 10.6218 49.0488 10.186 49.048 9.73995C49.048 9.14126 49.2856 8.56702 49.7085 8.1433C50.1315 7.71959 50.7053 7.48101 51.304 7.47995ZM46.168 12.248C46.5507 13.0366 47.1087 13.7273 47.7991 14.2673C48.4896 14.8074 49.2944 15.1825 50.152 15.364L52.344 26.584C51.516 26.9801 50.7946 27.5685 50.24 28.2999L34.06 19.836C34.5733 18.5924 34.6061 17.2024 34.152 15.936L46.168 12.248ZM28.728 15.48C29.174 15.48 29.61 15.6122 29.981 15.8599C30.3519 16.1076 30.641 16.4597 30.8119 16.8717C30.9828 17.2837 31.0277 17.7371 30.9409 18.1746C30.8542 18.6121 30.6398 19.0141 30.3246 19.3298C30.0095 19.6454 29.6079 19.8606 29.1706 19.9481C28.7332 20.0356 28.2797 19.9915 27.8674 19.8214C27.4551 19.6512 27.1025 19.3627 26.8541 18.9922C26.6058 18.6218 26.4728 18.186 26.472 17.74C26.472 17.1413 26.7096 16.567 27.1325 16.1433C27.5555 15.7196 28.1293 15.481 28.728 15.48ZM28.568 23.464L32.368 37.032C31.27 37.4663 30.3317 38.2273 29.68 39.212L14.484 35.3359L14.496 35.2439C14.4893 33.9357 14.0316 32.6699 13.2 31.66L24.496 21.584C25.012 22.1557 25.6385 22.6171 26.3376 22.9402C27.0368 23.2633 27.7941 23.4415 28.564 23.464H28.568ZM9.344 53.8119C9.344 54.2581 9.21169 54.6943 8.9638 55.0653C8.7159 55.4363 8.36356 55.7255 7.95133 55.8962C7.5391 56.067 7.0855 56.1116 6.64788 56.0246C6.21025 55.9375 5.80827 55.7227 5.49277 55.4072C5.17726 55.0917 4.9624 54.6897 4.87535 54.2521C4.7883 53.8145 4.83298 53.3608 5.00373 52.9486C5.17448 52.5364 5.46363 52.184 5.83463 51.9361C6.20563 51.6883 6.6418 51.556 7.088 51.556C7.686 51.557 8.25921 51.795 8.68206 52.2179C9.10492 52.6407 9.34294 53.2139 9.344 53.8119ZM8.264 48.192L9.02 40.9599C10.1293 40.9078 11.1996 40.5345 12.1007 39.8854C13.0018 39.2364 13.695 38.3396 14.096 37.304L28.888 41.076C28.6978 41.8302 28.6786 42.6174 28.832 43.38L11.46 50.1399C10.6414 49.1515 9.51443 48.4669 8.26 48.1959L8.264 48.192ZM8.752 32.984C9.19802 32.984 9.63404 33.1162 10.0049 33.3639C10.3759 33.6116 10.665 33.9637 10.8359 34.3757C11.0068 34.7877 11.0517 35.2411 10.9649 35.6786C10.8782 36.1161 10.6637 36.5181 10.3486 36.8338C10.0335 37.1494 9.63193 37.3646 9.19457 37.4521C8.75721 37.5396 8.30373 37.4955 7.89143 37.3254C7.47913 37.1552 7.12652 36.8667 6.87815 36.4962C6.62977 36.1258 6.49679 35.69 6.496 35.2439C6.496 34.6453 6.73356 34.071 7.15652 33.6473C7.57949 33.2236 8.1533 32.985 8.752 32.984ZM12.02 56.7039C12.4579 55.9905 12.7267 55.1863 12.8058 54.3528C12.8848 53.5194 12.772 52.679 12.476 51.8959L29.54 45.256C29.9263 45.9157 30.4406 46.4916 31.0526 46.9498C31.6646 47.408 32.3621 47.7392 33.104 47.924L25.644 58.2559C25.2703 57.1459 24.5645 56.1774 23.6223 55.4816C22.68 54.7858 21.5468 54.3962 20.3758 54.3657C19.2049 54.3351 18.0529 54.665 17.0756 55.3108C16.0984 55.9565 15.3431 56.8869 14.912 57.9759L12.02 56.7039ZM20.236 62.3639C19.7901 62.3632 19.3545 62.2303 18.9841 61.9821C18.6138 61.7339 18.3252 61.3815 18.155 60.9694C17.9847 60.5574 17.9404 60.1041 18.0275 59.6668C18.1147 59.2296 18.3295 58.828 18.6448 58.5127C18.96 58.1975 19.3617 57.9827 19.7989 57.8955C20.2361 57.8083 20.6894 57.8527 21.1015 58.0229C21.5136 58.1932 21.8659 58.4817 22.1141 58.8521C22.3623 59.2225 22.4952 59.6581 22.496 60.1039C22.496 60.7033 22.2579 61.2782 21.8341 61.702C21.4102 62.1258 20.8354 62.3639 20.236 62.3639ZM33.864 49.1399L34.58 53.9479C33.3786 54.2138 32.2945 54.8589 31.4877 55.788C30.681 56.7172 30.1945 57.8811 30.1 59.1079H27.3L33.864 49.1399ZM57.528 58.8799C57.0822 58.8792 56.6465 58.7463 56.2761 58.4981C55.9058 58.2499 55.6172 57.8975 55.447 57.4854C55.2767 57.0734 55.2324 56.6201 55.3196 56.1828C55.4067 55.7456 55.6215 55.344 55.9368 55.0287C56.252 54.7135 56.6537 54.4987 57.0909 54.4115C57.5282 54.3243 57.9814 54.3687 58.3935 54.5389C58.8056 54.7092 59.1579 54.9977 59.4061 55.3681C59.6543 55.7385 59.7872 56.1741 59.788 56.6199C59.788 57.2193 59.5499 57.7942 59.1261 58.218C58.7022 58.6418 58.1274 58.8799 57.528 58.8799ZM83.02 82.0599C82.5738 82.0599 82.1376 81.9276 81.7666 81.6797C81.3956 81.4318 81.1065 81.0795 80.9357 80.6673C80.765 80.2551 80.7203 79.8014 80.8074 79.3638C80.8944 78.9262 81.1093 78.5242 81.4248 78.2087C81.7403 77.8932 82.1423 77.6783 82.5799 77.5913C83.0175 77.5042 83.4711 77.5489 83.8833 77.7197C84.2956 77.8904 84.6479 78.1796 84.8958 78.5506C85.1437 78.9216 85.276 79.3577 85.276 79.8039C85.275 80.4019 85.0369 80.9752 84.6141 81.398C84.1912 81.8209 83.618 82.0589 83.02 82.0599ZM83.02 74.0599C82.2575 74.06 81.5026 74.2126 80.7999 74.5087C80.0972 74.8047 79.4607 75.2383 78.928 75.7839C74.6694 69.2616 68.8904 63.8711 62.088 60.0759C62.4209 59.6394 62.689 59.1571 62.884 58.6439L74.976 61.5359C75.2863 62.7374 75.9782 63.8058 76.9476 64.5805C77.917 65.3551 79.1116 65.7943 80.352 65.8319C80.8491 68.7616 81.9013 71.5692 83.452 74.1039C83.304 74.0919 83.168 74.0639 83.02 74.0639V74.0599ZM80.516 62.3639C80.07 62.3639 79.634 62.2317 79.2631 61.984C78.8922 61.7363 78.603 61.3842 78.4321 60.9722C78.2613 60.5602 78.2163 60.1068 78.3031 59.6693C78.3898 59.2318 78.6043 58.8298 78.9194 58.5141C79.2345 58.1985 79.6361 57.9833 80.0734 57.8958C80.5108 57.8083 80.9643 57.8524 81.3766 58.0225C81.7889 58.1927 82.1415 58.4812 82.3899 58.8517C82.6382 59.2221 82.7712 59.6579 82.772 60.1039C82.772 60.7026 82.5344 61.2769 82.1115 61.7006C81.6885 62.1243 81.1147 62.3629 80.516 62.3639ZM82.292 54.6719C81.169 54.2655 79.9405 54.257 78.812 54.6479L73.816 46.936C74.8271 46.176 75.5584 45.1029 75.896 43.8839H80.748C80.9904 44.759 81.437 45.564 82.051 46.233C82.665 46.9019 83.4289 47.4156 84.28 47.7319L82.292 54.6719Z" fill="#07E4EC"/>
</svg>
