<svg width="40" height="40" viewBox="0 0 40 40" fill="none" xmlns="http://www.w3.org/2000/svg">
<path d="M22.6245 20.6335C21.9525 20.6335 21.308 20.9005 20.8328 21.3757C20.3575 21.8509 20.0906 22.4954 20.0906 23.1674M20.0906 23.1674V23.8914M20.0906 23.1674C20.0906 22.4954 19.8236 21.8509 19.3484 21.3757C18.8732 20.9005 18.2287 20.6335 17.5566 20.6335M20.0906 23.8914C20.0906 24.5634 20.3575 25.208 20.8328 25.6832C21.308 26.1584 21.9525 26.4253 22.6245 26.4253C23.2966 26.4253 23.9411 26.1584 24.4163 25.6832C24.8915 25.208 25.1585 24.5634 25.1585 23.8914V22.5882M20.0906 23.8914C20.0906 24.5634 19.8236 25.208 19.3484 25.6832C18.8732 26.1584 18.2287 26.4253 17.5566 26.4253C16.8846 26.4253 16.2401 26.1584 15.7649 25.6832C15.2897 25.208 15.0227 24.5634 15.0227 23.8914V22.5882" stroke="white" stroke-width="2" stroke-linecap="round" stroke-linejoin="round"/>
<path d="M24.0724 22.8054C24.7445 22.8054 25.389 22.5385 25.8642 22.0632C26.3394 21.588 26.6064 20.9435 26.6064 20.2715C26.6064 19.5994 26.3394 18.9549 25.8642 18.4797C25.389 18.0045 24.7445 17.7375 24.0724 17.7375H23.7104" stroke="white" stroke-width="2" stroke-linecap="round" stroke-linejoin="round"/>
<path d="M25.1584 17.9548V15.9276C25.1584 15.2556 24.8915 14.6111 24.4162 14.1358C23.941 13.6606 23.2965 13.3937 22.6245 13.3937C21.9524 13.3937 21.3079 13.6606 20.8327 14.1358C20.3575 14.6111 20.0905 15.2556 20.0905 15.9276M16.1086 22.8054C15.4366 22.8054 14.7921 22.5385 14.3169 22.0633C13.8417 21.5881 13.5747 20.9435 13.5747 20.2715C13.5747 19.5995 13.8417 18.9549 14.3169 18.4797C14.7921 18.0045 15.4366 17.7376 16.1086 17.7376H16.4706" stroke="white" stroke-width="2" stroke-linecap="round" stroke-linejoin="round"/>
<path d="M15.0227 17.9548V15.9276C15.0227 15.2556 15.2897 14.6111 15.7649 14.1358C16.2401 13.6606 16.8846 13.3937 17.5566 13.3937C18.2287 13.3937 18.8732 13.6606 19.3484 14.1358C19.8236 14.6111 20.0906 15.2556 20.0906 15.9276V23.1674" stroke="white" stroke-width="2" stroke-linecap="round" stroke-linejoin="round"/>
<path d="M5.4299 15.0226C5.4299 16.1222 4.53852 17.0136 3.43895 17.0136C2.33938 17.0136 1.448 16.1222 1.448 15.0226C1.448 13.9231 2.33938 13.0317 3.43895 13.0317C4.53852 13.0317 5.4299 13.9231 5.4299 15.0226ZM2.74458 15.0226C2.74458 15.4061 3.05546 15.717 3.43895 15.717C3.82244 15.717 4.13331 15.4061 4.13331 15.0226C4.13331 14.6391 3.82244 14.3283 3.43895 14.3283C3.05546 14.3283 2.74458 14.6391 2.74458 15.0226Z" fill="white"/>
<path d="M40 9.41179C40 10.5114 39.1086 11.4027 38.009 11.4027C36.9094 11.4027 36.0181 10.5114 36.0181 9.41179C36.0181 8.31222 36.9094 7.42084 38.009 7.42084C39.1086 7.42084 40 8.31222 40 9.41179ZM37.3147 9.41179C37.3147 9.79527 37.6255 10.1062 38.009 10.1062C38.3925 10.1062 38.7034 9.79527 38.7034 9.41179C38.7034 9.0283 38.3925 8.71742 38.009 8.71742C37.6255 8.71742 37.3147 9.0283 37.3147 9.41179Z" fill="white"/>
<path d="M27.1494 3.07695C27.1494 4.17652 26.258 5.0679 25.1584 5.0679C24.0589 5.0679 23.1675 4.17652 23.1675 3.07695C23.1675 1.97738 24.0589 1.086 25.1584 1.086C26.258 1.086 27.1494 1.97738 27.1494 3.07695ZM24.4641 3.07695C24.4641 3.46044 24.7749 3.77131 25.1584 3.77131C25.5419 3.77131 25.8528 3.46044 25.8528 3.07695C25.8528 2.69346 25.5419 2.38258 25.1584 2.38258C24.7749 2.38258 24.4641 2.69346 24.4641 3.07695Z" fill="white"/>
<path d="M11.5837 1.99095C11.5837 3.09052 10.6923 3.9819 9.59276 3.9819C8.49319 3.9819 7.60181 3.09052 7.60181 1.99095C7.60181 0.891379 8.49319 0 9.59276 0C10.6923 0 11.5837 0.891379 11.5837 1.99095ZM8.89839 1.99095C8.89839 2.37444 9.20927 2.68531 9.59276 2.68531C9.97624 2.68531 10.2871 2.37444 10.2871 1.99095C10.2871 1.60746 9.97624 1.29659 9.59276 1.29659C9.20927 1.29659 8.89839 1.60746 8.89839 1.99095Z" fill="white"/>
<path d="M38.914 24.9774C38.914 26.077 38.0227 26.9684 36.9231 26.9684C35.8235 26.9684 34.9321 26.077 34.9321 24.9774C34.9321 23.8778 35.8235 22.9865 36.9231 22.9865C38.0227 22.9865 38.914 23.8778 38.914 24.9774ZM36.2287 24.9774C36.2287 25.3609 36.5396 25.6718 36.9231 25.6718C37.3066 25.6718 37.6174 25.3609 37.6174 24.9774C37.6174 24.5939 37.3066 24.283 36.9231 24.283C36.5396 24.283 36.2287 24.5939 36.2287 24.9774Z" fill="white"/>
<path d="M3.9819 30.4073C3.9819 31.5068 3.09052 32.3982 1.99095 32.3982C0.891379 32.3982 0 31.5068 0 30.4073C0 29.3077 0.891379 28.4163 1.99095 28.4163C3.09052 28.4163 3.9819 29.3077 3.9819 30.4073ZM1.29659 30.4073C1.29659 30.7908 1.60746 31.1016 1.99095 31.1016C2.37444 31.1016 2.68531 30.7908 2.68531 30.4073C2.68531 30.0238 2.37444 29.7129 1.99095 29.7129C1.60746 29.7129 1.29659 30.0238 1.29659 30.4073Z" fill="white"/>
<path d="M32.7602 37.828C32.7602 38.9276 31.8688 39.819 30.7693 39.819C29.6697 39.819 28.7783 38.9276 28.7783 37.828C28.7783 36.7285 29.6697 35.8371 30.7693 35.8371C31.8688 35.8371 32.7602 36.7285 32.7602 37.828ZM30.0749 37.828C30.0749 38.2115 30.3858 38.5224 30.7693 38.5224C31.1528 38.5224 31.4636 38.2115 31.4636 37.828C31.4636 37.4446 31.1528 37.1337 30.7693 37.1337C30.3858 37.1337 30.0749 37.4446 30.0749 37.828Z" fill="white"/>
<path d="M17.1945 36.7421C17.1945 37.8417 16.3032 38.7331 15.2036 38.7331C14.104 38.7331 13.2126 37.8417 13.2126 36.7421C13.2126 35.6425 14.104 34.7512 15.2036 34.7512C16.3032 34.7512 17.1945 35.6425 17.1945 36.7421ZM14.5092 36.7421C14.5092 37.1256 14.8201 37.4365 15.2036 37.4365C15.5871 37.4365 15.898 37.1256 15.898 36.7421C15.898 36.3586 15.5871 36.0477 15.2036 36.0477C14.8201 36.0477 14.5092 36.3586 14.5092 36.7421Z" fill="white"/>
<rect x="4.88696" y="14.2986" width="6.33484" height="1.44796" fill="white"/>
<rect x="10.1357" y="26.9683" width="15.0226" height="1.44796" rx="0.723982" transform="rotate(-90 10.1357 26.9683)" fill="white"/>
<rect x="14.7876" y="8.12823" width="6.92998" height="1.38836" rx="0.69418" transform="rotate(-134.106 14.7876 8.12823)" fill="white"/>
<path d="M14.2986 10.1357V7.42081C14.2986 7.02097 14.6227 6.69683 15.0226 6.69683V6.69683C15.4224 6.69683 15.7465 7.02097 15.7465 7.42081V10.1357H14.2986Z" fill="white"/>
<path d="M14.4797 35.2941V30.2263C14.4797 29.8264 14.8039 29.5023 15.2037 29.5023V29.5023C15.6036 29.5023 15.9277 29.8264 15.9277 30.2263V35.2941H14.4797Z" fill="white"/>
<path d="M18.2805 28.4163V33.4842C18.2805 33.884 17.9564 34.2082 17.5565 34.2082V34.2082C17.1567 34.2082 16.8326 33.884 16.8326 33.4842V28.4163H18.2805Z" fill="white"/>
<path d="M23.3484 28.4163V32.3982C23.3484 32.7981 23.0243 33.1222 22.6244 33.1222V33.1222C22.2246 33.1222 21.9004 32.7981 21.9004 32.3982V28.4163H23.3484Z" fill="white"/>
<path d="M25.7014 28.4163V32.3982C25.7014 32.7981 25.3773 33.1222 24.9774 33.1222V33.1222C24.5776 33.1222 24.2535 32.7981 24.2535 32.3982V28.4163H25.7014Z" fill="white"/>
<path d="M25.7585 32.0362L30.0028 35.8094C30.3016 36.0751 30.3285 36.5327 30.0628 36.8315V36.8315C29.7972 37.1303 29.3395 37.1572 29.0407 36.8915L24.7965 33.1183L25.7585 32.0362Z" fill="white"/>
<path d="M20.8145 28.4163V39.0951C20.8145 39.4949 20.4903 39.819 20.0905 39.819V39.819C19.6906 39.819 19.3665 39.4949 19.3665 39.0951V28.4163H20.8145Z" fill="white"/>
<rect x="11.9458" y="9.95477" width="16.4706" height="1.44796" rx="0.723982" fill="white"/>
<rect x="12.6697" y="28.4163" width="15.7466" height="1.44796" rx="0.723982" fill="white"/>
<rect x="28.7783" y="28.4163" width="16.4706" height="1.44796" rx="0.723982" transform="rotate(-90 28.7783 28.4163)" fill="white"/>
<path d="M16.8899 11.4016V7.55497C16.8899 7.17158 17.2007 6.86079 17.5841 6.86079V6.86079C17.9675 6.86079 18.2783 7.17158 18.2783 7.55497V11.4016H16.8899Z" fill="white"/>
<path d="M21.9004 11.4186V7.572C21.9004 7.18861 22.2112 6.87782 22.5946 6.87782V6.87782C22.978 6.87782 23.2888 7.18861 23.2888 7.572V11.4186H21.9004Z" fill="white"/>
<rect x="29.4773" y="13.2026" width="3.61079" height="1.35307" rx="0.676535" transform="rotate(-133.688 29.4773 13.2026)" fill="white"/>
<rect x="13.0664" y="29.9045" width="4.50512" height="1.36882" rx="0.684411" transform="rotate(-133.688 13.0664 29.9045)" fill="white"/>
<path d="M24.4343 11.2217V5.06789C24.4343 4.66805 24.7585 4.34391 25.1583 4.34391V4.34391C25.5582 4.34391 25.8823 4.66805 25.8823 5.06789V11.2217H24.4343Z" fill="white"/>
<path d="M19.3665 11.2217V0.724003C19.3665 0.324158 19.6906 2.00272e-05 20.0904 2.00272e-05V2.00272e-05C20.4903 2.00272e-05 20.8144 0.324158 20.8144 0.724002V11.2217H19.3665Z" fill="white"/>
<path d="M31.6743 14.6178L36.1868 10.5052C36.4823 10.2359 36.9402 10.2571 37.2096 10.5526V10.5526C37.4789 10.8481 37.4577 11.306 37.1621 11.5754L32.6497 15.688L31.6743 14.6178Z" fill="white"/>
<path d="M6.87793 17.3756C6.87793 16.9757 7.20207 16.6516 7.60191 16.6516H11.2218V18.0996H7.60191C7.20207 18.0996 6.87793 17.7754 6.87793 17.3756V17.3756Z" fill="white"/>
<path d="M33.1221 15.0226C33.1221 14.6228 32.7979 14.2986 32.3981 14.2986H28.7782V15.7466H32.3981C32.7979 15.7466 33.1221 15.4225 33.1221 15.0226V15.0226Z" fill="white"/>
<path d="M33.1221 17.3756C33.1221 16.9757 32.7979 16.6516 32.3981 16.6516H28.7782V18.0996H32.3981C32.7979 18.0996 33.1221 17.7754 33.1221 17.3756V17.3756Z" fill="white"/>
<path d="M40 19.9095C40 19.5097 39.6759 19.1855 39.276 19.1855H28.7783V20.6335H39.276C39.6759 20.6335 40 20.3094 40 19.9095V19.9095Z" fill="white"/>
<path d="M33.1221 22.4435C33.1221 22.0436 32.7979 21.7195 32.3981 21.7195H28.7782V23.1674H32.3981C32.7979 23.1674 33.1221 22.8433 33.1221 22.4435V22.4435Z" fill="white"/>
<path d="M35.4751 24.9774C35.4751 24.5776 35.151 24.2534 34.7511 24.2534H28.7783V25.7014H34.7511C35.151 25.7014 35.4751 25.3772 35.4751 24.9774V24.9774Z" fill="white"/>
<path d="M0 19.9095C0 19.5097 0.324138 19.1855 0.723982 19.1855H11.2217V20.6335H0.723983C0.324138 20.6335 0 20.3094 0 19.9095V19.9095Z" fill="white"/>
<path d="M6.87793 22.4435C6.87793 22.0436 7.20207 21.7195 7.60191 21.7195H11.2218V23.1674H7.60191C7.20207 23.1674 6.87793 22.8433 6.87793 22.4435V22.4435Z" fill="white"/>
<rect x="7.60181" y="24.2534" width="3.61991" height="1.44796" fill="white"/>
<path d="M2.53394 29.0735L6.60633 24.8869L7.60181 24.2534L7.60181 25.7014L3.62122 30.0245L2.53394 29.0735Z" fill="white"/>
</svg>
