<svg width="1512" height="832" viewBox="0 0 1512 832" fill="none" xmlns="http://www.w3.org/2000/svg">
<g clip-path="url(#clip0_35_458)">
<path opacity="0.7" d="M461 278H79V777" stroke="#8D5B16" stroke-width="2"/>
<path opacity="0.7" d="M466 287.788L394 242H57V777" stroke="#8D5B16" stroke-width="2"/>
<path opacity="0.7" d="M525 197.92L435 128H0V777" stroke="#8D5B16" stroke-width="2"/>
<path opacity="0.7" d="M821 523H1124V777" stroke="#DE9531" stroke-width="0.5"/>
<path opacity="0.7" d="M821 486H1162V777" stroke="#DE9531" stroke-width="0.5"/>
<path opacity="0.7" d="M821 452H1206V777" stroke="#DE9531" stroke-width="0.5"/>
<path opacity="0.7" d="M821 409H1249V777" stroke="#DE9531" stroke-width="0.5"/>
<path opacity="0.7" d="M821 363H1287.67L1297 777" stroke="#DE9531" stroke-width="0.5"/>
<path opacity="0.7" d="M461 539H211V777" stroke="#DE9531" stroke-width="0.5"/>
<path opacity="0.7" d="M461 465H169V777" stroke="#DE9531" stroke-width="0.5"/>
<path opacity="0.7" d="M461 428.117L427.385 405H139V777" stroke="#DE9531" stroke-width="0.5"/>
<path opacity="0.7" d="M466 356.249L435.407 334H112V777" stroke="#DE9531" stroke-width="0.5"/>
<path opacity="0.7" d="M899 382V344H1121V0" stroke="#8D5B16" stroke-width="2"/>
</g>
<defs>
<clipPath id="clip0_35_458">
<rect width="1512" height="832" fill="white"/>
</clipPath>
</defs>
</svg>
