<svg width="96" height="96" viewBox="0 0 96 96" fill="none" xmlns="http://www.w3.org/2000/svg">
<path d="M48 87C34.4267 87 20 76.4266 20 56.8346C20 43.8293 28.9734 32.36 40.2427 24.1093C33.048 20.6373 26.016 18.6666 21.3334 18.6666C14.112 18.6666 6.66937 21.104 6.59471 21.128C5.59472 21.439 4.51262 21.3455 3.58082 20.8675C2.64903 20.3895 1.94187 19.5651 1.61122 18.5714C1.28057 17.5777 1.35282 16.494 1.81243 15.553C2.27205 14.612 3.08238 13.8887 4.06937 13.5386C4.42137 13.4213 12.7814 10.6666 21.3334 10.6666C28.52 10.6666 38.5307 13.7546 48.0267 19.0986C57.5067 13.7546 67.4934 10.6666 74.6667 10.6666C83.2187 10.6666 91.2587 14.824 91.584 15C93.6667 16.1253 95.0827 16.864 94.584 18.376C94.0987 19.8453 92.208 19.2506 89.9174 19C89.84 18.992 84.168 17.9573 74.7494 17.9573C70.0774 17.9573 62.9894 20.632 55.816 24.1013C67.056 32.3226 75.9974 43.728 75.9974 56.6666C76 76.3706 61.5734 87 48 87ZM48.0347 28.456C37.288 35.3493 28 45.376 28 56.8346C28 72.984 40.2667 79 48 79C55.7307 79 68 72.9386 68 56.6666C68 45.28 58.752 35.32 48.0347 28.456Z" fill="#07E4EC"/>
</svg>
